# xmcd
# 
# Track frame offsets:
#     150
#     1223
#     34596
#     62571
#     95757
#     117094
#     146101
#     177799
#     207865
#     231243
#     259786
#     293026
#     309427
#     341253
# 
# Disc length: 4656
# 
# Revision: 0
# Processed by: cddbd v1.5.2PL0 Copyright (c) Steve Scherf et al.
# Submitted via: fre:ac v1.0.31
# 
DISCID=be122e0e
DTITLE=Ketil Bjørnstad - Verden som var min - Sytttitallet Disc 16
DYEAR=2016
DGENRE=Audiobook
TTITLE0=Spor 01
TTITLE1=Spor 02
TTITLE2=Spor 03
TTITLE3=Spor 04
TTITLE4=Spor 05
TTITLE5=Spor 06
TTITLE6=Spor 07
TTITLE7=Spor 08
TTITLE8=Spor 09
TTITLE9=Spor 10
TTITLE10=Spor 11
TTITLE11=Spor 12
TTITLE12=Spor 13
TTITLE13=Spor 14
EXTD=
EXTT0=
EXTT1=
EXTT2=
EXTT3=
EXTT4=
EXTT5=
EXTT6=
EXTT7=
EXTT8=
EXTT9=
EXTT10=
EXTT11=
EXTT12=
EXTT13=
PLAYORDER=
